<?xml version="1.0" encoding="UTF-8" standalone="no"?>
<svg width="110px" height="32px" viewBox="0 0 110 32" version="1.1" xmlns="http://www.w3.org/2000/svg" xmlns:xlink="http://www.w3.org/1999/xlink">
    <!-- Generator: Sketch 47 (45396) - http://www.bohemiancoding.com/sketch -->
    <title>Page 1</title>
    <desc>Created with Sketch.</desc>
    <defs>
        <polygon id="path-1" points="0 31.3333333 110 31.3333333 110 0 0 0"></polygon>
    </defs>
    <g id="Page-1" stroke="none" stroke-width="1" fill="none" fill-rule="evenodd">
        <g>
            <mask id="mask-2" fill="white">
                <use xlink:href="#path-1"></use>
            </mask>
            <g id="Clip-2"></g>
            <path d="M44.2868911,24.1373807 L45.8227609,24.1373807 L45.8227609,22.176334 L44.2868911,22.176334 L44.2868911,24.1373807 Z M44.2868911,27.3883262 L45.8227609,27.3883262 L45.8227609,25.4272795 L44.2868911,25.4272795 L44.2868911,27.3883262 Z M40.5108875,24.1373807 L42.0471456,24.1373807 L42.0471456,22.176334 L40.5108875,22.176334 L40.5108875,24.1373807 Z M40.5108875,27.3883262 L42.0471456,27.3883262 L42.0471456,25.4272795 L40.5108875,25.4272795 L40.5108875,27.3883262 Z M36.7504136,24.1373807 L38.2866716,24.1373807 L38.2866716,22.176334 L36.7504136,22.176334 L36.7504136,24.1373807 Z M36.7504136,27.3883262 L38.2866716,27.3883262 L38.2866716,25.4272795 L36.7504136,25.4272795 L36.7504136,27.3883262 Z M32.9992573,24.1373807 L34.5355153,24.1373807 L34.5355153,22.176334 L32.9992573,22.176334 L32.9992573,24.1373807 Z M32.9992573,27.3883262 L34.5355153,27.3883262 L34.5355153,25.4272795 L32.9992573,25.4272795 L32.9992573,27.3883262 Z M29.1327943,20.9661871 L30.6686641,20.9661871 L30.6686641,19.0051404 L29.1327943,19.0051404 L29.1327943,20.9661871 Z M29.1327943,24.1373807 L30.6686641,24.1373807 L30.6686641,22.176334 L29.1327943,22.176334 L29.1327943,24.1373807 Z M29.1327943,27.3883262 L30.6686641,27.3883262 L30.6686641,25.4272795 L29.1327943,25.4272795 L29.1327943,27.3883262 Z M24.1245231,20.9661871 L25.8754769,20.9661871 L25.8754769,19.0051404 L24.1245231,19.0051404 L24.1245231,20.9661871 Z M19.2963944,20.9661871 L20.8326525,20.9661871 L20.8326525,19.0051404 L19.2963944,19.0051404 L19.2963944,20.9661871 Z M19.2963944,24.1373807 L20.8326525,24.1373807 L20.8326525,22.176334 L19.2963944,22.176334 L19.2963944,24.1373807 Z M19.2963944,27.3883262 L20.8326525,27.3883262 L20.8326525,25.4272795 L19.2963944,25.4272795 L19.2963944,27.3883262 Z M15.4299315,24.1373807 L16.9658013,24.1373807 L16.9658013,22.176334 L15.4299315,22.176334 L15.4299315,24.1373807 Z M15.4299315,27.3883262 L16.9658013,27.3883262 L16.9658013,25.4272795 L15.4299315,25.4272795 L15.4299315,27.3883262 Z M11.6787752,24.1373807 L13.214645,24.1373807 L13.214645,22.176334 L11.6787752,22.176334 L11.6787752,24.1373807 Z M11.6787752,27.3883262 L13.214645,27.3883262 L13.214645,25.4272795 L11.6787752,25.4272795 L11.6787752,27.3883262 Z M7.91791297,24.1373807 L9.45417103,24.1373807 L9.45417103,22.176334 L7.91791297,22.176334 L7.91791297,24.1373807 Z M7.91791297,27.3883262 L9.45417103,27.3883262 L9.45417103,25.4272795 L7.91791297,25.4272795 L7.91791297,27.3883262 Z M4.14229769,24.1373807 L5.67855575,24.1373807 L5.67855575,22.176334 L4.14229769,22.176334 L4.14229769,24.1373807 Z M4.14229769,27.3883262 L5.67855575,27.3883262 L5.67855575,25.4272795 L4.14229769,25.4272795 L4.14229769,27.3883262 Z M48,23.2551024 L48,22.0326267 L47.5845853,22.0326267 L47.5845853,19.7610488 L47.3594072,19.0390445 C47.4886905,18.9454228 47.5741028,18.7951658 47.5741028,18.624104 C47.5741028,18.3401567 47.3419365,18.1097627 47.0561932,18.1097627 C46.7696735,18.1097627 46.5378954,18.3401567 46.5378954,18.624104 C46.5378954,18.7886162 46.617096,18.9334793 46.7382263,19.0274863 L46.5662368,19.6550983 L43.8508997,19.6550983 L43.6800749,19.0324949 C43.8050876,18.9384879 43.8866176,18.7913131 43.8866176,18.624104 C43.8866176,18.3401567 43.6548395,18.1097627 43.3683198,18.1097627 C43.0825766,18.1097627 42.8504102,18.3401567 42.8504102,18.624104 C42.8504102,18.7947805 42.9350461,18.944267 43.0639411,19.0378887 L42.8950576,19.6550983 L40.1280848,19.6550983 L39.9599777,19.0405856 C40.0904257,18.9473492 40.1762263,18.7963216 40.1762263,18.624104 C40.1762263,18.3401567 39.9444482,18.1097627 39.6583167,18.1097627 C39.3721853,18.1097627 39.1400189,18.3401567 39.1400189,18.624104 C39.1400189,18.789772 39.2207724,18.935791 39.3434557,19.0297979 L39.1722427,19.6550983 L36.4052699,19.6550983 L36.2340569,19.0286421 C36.3555754,18.9346352 36.4355525,18.7890014 36.4355525,18.624104 C36.4355525,18.3401567 36.2033861,18.1097627 35.9176429,18.1097627 C35.6311232,18.1097627 35.3993451,18.3401567 35.3993451,18.624104 C35.3993451,18.7970922 35.4859221,18.9488903 35.6175349,19.0417414 L35.449816,19.6550983 L32.7569967,19.6550983 L32.7569967,17.5156695 L32.7585497,17.5156695 L32.5923838,16.9092476 C32.7076905,16.8148554 32.7826204,16.6742302 32.7826204,16.5143413 C32.7826204,16.2300088 32.5508423,16 32.2647108,16 C31.9785794,16 31.746413,16.2300088 31.746413,16.5143413 C31.746413,16.6854032 31.8322136,16.8364307 31.9618851,16.9300524 L31.8015428,17.5156695 L27.9490564,17.5156695 L27.7778434,16.8892133 C27.8791736,16.7955916 27.9440093,16.662672 27.9440093,16.5143413 C27.9440093,16.2300088 27.7118429,16 27.4257115,16 C27.13958,16 26.9078019,16.2300088 26.9078019,16.5143413 C26.9078019,16.6961909 27.0036967,16.8553092 27.147733,16.9470045 L26.9916613,17.5156695 L23.0098916,17.5156695 L22.8553729,16.9516278 C23.0044563,16.8618588 23.10501,16.7000436 23.10501,16.5143413 C23.10501,16.2300088 22.8728436,16 22.5871004,16 C22.3005807,16 22.0688025,16.2300088 22.0688025,16.5143413 C22.0688025,16.6588192 22.1293677,16.789042 22.226039,16.8822784 L22.0524965,17.5156695 L18.2000101,17.5156695 L18.041609,16.9369874 C18.1771041,16.8445215 18.2660106,16.6900265 18.2660106,16.5143413 C18.2660106,16.2300088 18.0342325,16 17.748101,16 C17.4619695,16 17.2298032,16.2300088 17.2298032,16.5143413 C17.2298032,16.6696069 17.3008507,16.8071499 17.4111104,16.9019274 L17.2430033,17.5156695 L17.2395091,17.5156695 L17.2395091,19.6550983 L14.5517369,19.6550983 L14.3879005,19.0563819 C14.5315486,18.9650718 14.6274434,18.8059535 14.6274434,18.624104 C14.6274434,18.3401567 14.395277,18.1097627 14.1091455,18.1097627 C13.8230141,18.1097627 13.5912359,18.3401567 13.5912359,18.624104 C13.5912359,18.7797548 13.6622835,18.9172978 13.7721549,19.01169 L13.5958948,19.6550983 L10.828922,19.6550983 L10.6639209,19.0513733 C10.8025219,18.9589074 10.894146,18.8021008 10.894146,18.624104 C10.894146,18.3401567 10.6619797,18.1097627 10.3762365,18.1097627 C10.090105,18.1097627 9.85793862,18.3401567 9.85793862,18.624104 C9.85793862,18.7836076 9.93286857,18.924618 10.047787,19.018625 L9.87346815,19.6550983 L7.10649539,19.6550983 L6.93916478,19.0448236 C7.07310692,18.9519725 7.16084872,18.798248 7.16084872,18.624104 C7.16084872,18.3401567 6.92907059,18.1097627 6.64293913,18.1097627 C6.35680767,18.1097627 6.1246413,18.3401567 6.1246413,18.624104 C6.1246413,18.7874603 6.20306539,18.931553 6.3234192,19.0255599 L6.15065325,19.6550983 L3.39765707,19.6550983 L3.22605584,19.0286421 C3.34796259,18.9346352 3.42793964,18.7890014 3.42793964,18.624104 C3.42793964,18.3401567 3.19577327,18.1097627 2.90964181,18.1097627 C2.62351035,18.1097627 2.39173222,18.3401567 2.39173222,18.624104 C2.39173222,18.7970922 2.47830931,18.948505 2.60992201,19.0417414 L2.4200736,19.7336943 L2.41657945,22.0326267 L2,22.0326267 L2,23.2551024 L2.41657945,23.2551024 L2.41657945,27.4438057 L2,27.4438057 L2,28.6666667 L23.3713413,28.6666667 L23.3713413,24.0680313 C23.3713413,23.1557016 24.119476,22.4132778 25.039212,22.4132778 C25.9585598,22.4132778 26.7063063,23.1557016 26.7063063,24.0680313 L26.7063063,28.6666667 L48,28.6666667 L48,27.4438057 L47.5845853,27.4438057 L47.5845853,23.2551024 L48,23.2551024 Z" id="Fill-1" fill="#8A8A8A" mask="url(#mask-2)"></path>
            <polygon id="Fill-3" fill="#8A8A8A" mask="url(#mask-2)" points="54 31.3333333 54.6666667 31.3333333 54.6666667 14 54 14"></polygon>
            <path d="M70,27.5790001 C68.4126031,28.2872572 67.0898391,28.6666667 65.5376732,28.6666667 C61.7991833,28.6666667 60,26.2494992 60,22.5545684 C60,18.9286212 61.8344143,16.6666667 65.6789975,16.6666667 C67.6367203,16.6666667 68.8537913,17.1330895 69.823845,17.7719711 L68.642005,19.8265831 C67.9718152,19.3774061 66.984146,19.0665883 65.7322444,19.0665883 C63.7745216,19.0665883 62.9634078,20.3615974 62.9634078,22.5200766 C62.9634078,25.1273408 63.8802146,26.3706123 65.7146289,26.3706123 C66.3668028,26.3706123 67.0373929,26.2322533 67.4425494,26.0421566 L67.4425494,24.367738 L66.0317079,24.367738 L65.8551525,22.3817176 L70,22.3817176 L70,27.5790001 Z" id="Fill-4" fill="#8A8A8A" mask="url(#mask-2)"></path>
            <path d="M76.6162237,24.3163595 C76.6162237,22.3794178 76.099814,21.9373275 75.332955,21.9373275 C74.5664744,21.9373275 74.0500646,22.3794178 74.0500646,24.3163595 C74.0500646,26.1857919 74.533182,26.6953916 75.332955,26.6953916 C76.1334847,26.6953916 76.6162237,26.1857919 76.6162237,24.3163595 M79.3333333,24.3163595 C79.3333333,27.1710437 77.8998707,28.6666667 75.332955,28.6666667 C72.7664176,28.6666667 71.3333333,27.1710437 71.3333333,24.3163595 C71.3333333,21.8690466 72.7664176,20 75.332955,20 C77.8998707,20 79.3333333,21.8690466 79.3333333,24.3163595" id="Fill-5" fill="#8A8A8A" mask="url(#mask-2)"></path>
            <path d="M84.0112864,25.8721408 C84.265615,26.3009902 84.740413,26.6776927 85.265615,26.6776927 C85.9943568,26.6776927 86.6553803,26.0951269 86.6553803,24.2777706 C86.6553803,22.3751892 86.0451456,21.8778484 85.2825446,21.8778484 C84.8246762,21.8778484 84.3164037,22.1179574 84.0112864,22.4094349 L84.0112864,25.8721408 Z M82.7400282,28.4950491 L81.3333333,28.4950491 L81.3333333,16.6666667 L84.0112864,16.6666667 L84.0112864,19.4265577 L83.8589201,20.901068 C84.1301783,20.4379729 84.9943568,19.9235093 85.9266385,19.9235093 C87.7738874,19.9235093 89.3333333,21.2606477 89.3333333,24.2606477 C89.3333333,27.1407878 87.5199436,28.6666667 85.6215211,28.6666667 C84.3333333,28.6666667 83.7230986,28.2206944 83.2317558,27.4322653 L82.7400282,28.4950491 Z" id="Fill-6" fill="#8A8A8A" mask="url(#mask-2)"></path>
            <polygon id="Fill-7" fill="#8A8A8A" mask="url(#mask-2)" points="90.6666667 28.6666667 93.3333333 28.6666667 93.3333333 26 90.6666667 26"></polygon>
            <path d="M101.293221,22.4811501 C100.691937,22.1582766 99.9145608,22.0055192 99.2258323,22.0055192 C98.2009627,22.0055192 97.5290814,22.5833741 97.5290814,24.3165532 C97.5290814,25.98184 98.1123145,26.6275871 99.2430806,26.6275871 C100.056157,26.6275871 100.957481,26.3216866 101.505014,26.0327592 L102,27.9360544 C101.540313,28.1740627 100.320899,28.6666667 98.9783394,28.6666667 C96.22142,28.6666667 94.6666667,27.1711102 94.6666667,24.3165532 C94.6666667,21.6486996 96.2037706,20 98.9606899,20 C100.180104,20 101.134376,20.221421 102,20.6800789 L101.293221,22.4811501 Z" id="Fill-8" fill="#8A8A8A" mask="url(#mask-2)"></path>
            <path d="M106.063693,16.6666667 L106.063693,25.8892636 C106.063693,26.3009902 106.272536,26.5235871 106.637715,26.5410991 L107.333333,26.5924677 L107.333333,28.5121719 C107.333333,28.5121719 106.568233,28.6666667 105.889986,28.6666667 C104.150546,28.6666667 103.333333,27.7579885 103.333333,26.318113 L103.333333,16.6666667 L106.063693,16.6666667 Z" id="Fill-9" fill="#8A8A8A" mask="url(#mask-2)"></path>
            <polygon id="Fill-10" fill="#E53F40" mask="url(#mask-2)" points="54.6666667 6 109.333333 6 109.333333 0 54.6666667 0"></polygon>
            <polygon id="Fill-11" fill="#006FB3" mask="url(#mask-2)" points="0 6 54.6666667 6 54.6666667 0 0 0"></polygon>
        </g>
    </g>
</svg>